<?xml version="1.0" standalone="no"?>
<!DOCTYPE svg PUBLIC "-//W3C//DTD SVG 20010904//EN"
 "http://www.w3.org/TR/2001/REC-SVG-20010904/DTD/svg10.dtd">
<svg version="1.0" xmlns="http://www.w3.org/2000/svg"
 width="500.000000pt" height="500.000000pt" viewBox="0 0 500.000000 500.000000"
 preserveAspectRatio="xMidYMid meet">
<metadata>
Created by potrace 1.14, written by Peter Selinger 2001-2017
</metadata>
<g transform="translate(0.000000,500.000000) scale(0.100000,-0.100000)"
fill="#000000" stroke="none">
<path d="M1641 4892 c-43 -21 -72 -60 -78 -103 -5 -38 -5 -36 -1 -101 2 -25
-1 -44 -5 -41 -7 4 -3 -27 8 -63 2 -6 -1 -17 -5 -25 -5 -8 -4 -19 2 -26 6 -8
7 -13 1 -13 -7 0 -7 -15 -3 -40 5 -27 4 -43 -4 -48 -6 -4 -254 -7 -551 -8
-297 -1 -558 -5 -580 -8 -82 -13 -182 -78 -232 -151 -19 -28 -36 -72 -49 -126
-10 -38 -11 -1788 -2 -1847 11 -73 44 -138 95 -190 48 -49 134 -92 193 -97 21
-2 44 -6 51 -11 8 -5 10 -3 4 6 -6 10 -4 11 6 4 8 -5 336 -9 729 -10 393 -1
720 -2 725 -3 7 -1 10 -165 10 -472 0 -428 2 -475 18 -526 33 -100 99 -177
185 -215 62 -28 74 -30 206 -34 119 -4 120 -4 174 -41 30 -21 62 -42 71 -48 9
-5 18 -12 21 -16 3 -3 46 -34 95 -70 50 -35 92 -67 93 -71 2 -5 10 -8 17 -8 7
0 15 -3 17 -8 6 -13 284 -209 309 -217 72 -23 142 7 179 76 10 17 14 77 14
209 1 142 4 184 14 183 6 -2 12 0 12 5 0 8 82 7 105 -2 8 -3 15 -2 15 2 0 4
63 5 141 2 77 -3 148 -2 157 1 9 4 21 4 26 1 12 -7 133 -5 145 2 5 4 12 3 14
-1 8 -13 448 -6 513 7 58 12 108 36 156 74 32 25 88 101 88 119 0 7 4 17 9 22
5 6 13 30 18 55 12 61 10 1870 -2 1890 -5 8 -11 23 -12 33 -7 46 -87 138 -156
180 -82 50 -68 50 -884 50 l-763 1 -1 460 c0 467 -2 527 -16 549 -4 6 -8 18
-9 25 -2 8 -9 21 -18 30 -8 10 -14 20 -13 24 4 12 -106 118 -122 118 -5 0 -22
7 -39 15 -47 24 -67 27 -192 28 -123 2 -151 12 -218 73 -14 13 -28 24 -33 24
-4 0 -14 6 -21 13 -7 7 -42 33 -78 57 -36 25 -67 47 -70 50 -3 3 -34 27 -70
52 -36 26 -71 52 -78 59 -7 6 -63 44 -123 85 -119 81 -146 88 -208 56z"/>
<path d="M3121 4722 c-91 -44 -101 -175 -18 -236 35 -26 112 -30 150 -8 48 28
71 76 64 132 -3 27 -13 60 -22 74 -30 46 -118 66 -174 38z"/>
<path d="M3550 4722 c-97 -52 -93 -207 7 -249 36 -14 161 -21 180 -10 6 4 13
4 16 0 3 -3 35 -5 69 -5 35 0 76 -2 91 -5 29 -6 89 -58 96 -83 6 -22 10 -494
4 -503 -3 -5 -38 23 -77 62 -40 38 -85 73 -100 77 -64 16 -138 -14 -167 -68
-14 -27 -21 -86 -10 -92 6 -4 8 -13 5 -21 -7 -18 401 -430 439 -444 29 -11 80
-8 117 7 14 6 92 78 174 161 82 83 150 151 151 151 8 0 75 73 75 81 0 5 4 9 9
9 12 0 22 27 28 72 10 77 -53 148 -130 148 -56 0 -95 -22 -163 -92 l-59 -61
-2 34 c-2 19 -4 138 -6 264 -4 225 -8 283 -24 308 -4 6 -8 18 -9 25 -2 8 -10
22 -18 31 -9 10 -16 23 -16 29 0 18 -82 97 -138 130 -78 48 -148 60 -340 61
-145 1 -172 -1 -202 -17z"/>
<path d="M653 1823 c-36 -19 -409 -389 -429 -426 -46 -86 26 -204 121 -199 12
1 50 10 50 12 0 1 8 3 19 5 10 2 45 31 78 64 32 34 63 61 69 61 5 0 9 -18 9
-40 0 -352 4 -486 17 -524 20 -58 55 -126 65 -126 4 0 8 -6 8 -13 0 -7 18 -28
41 -47 23 -19 46 -40 53 -45 11 -11 83 -47 101 -51 6 -2 21 -6 35 -10 14 -4
105 -9 203 -11 225 -6 260 5 290 92 12 33 12 48 2 81 -27 91 -65 106 -265 105
-146 0 -210 9 -210 31 0 5 -6 8 -13 8 -6 0 -19 15 -27 33 -12 25 -15 83 -15
275 -1 134 2 245 5 247 3 2 37 -27 74 -65 50 -50 78 -71 109 -79 27 -6 43 -7
45 -1 2 6 8 8 13 5 16 -11 75 25 93 57 22 37 24 102 4 140 -16 29 -373 388
-412 413 -34 22 -98 26 -133 8z"/>
<path d="M1626 740 c-105 -32 -125 -184 -32 -245 28 -19 99 -27 129 -15 26 9
74 50 61 50 -5 0 -2 4 5 9 25 16 24 110 -2 148 -36 53 -95 72 -161 53z"/>
</g>
</svg>
